<svg xmlns="http://www.w3.org/2000/svg" xmlns:xlink="http://www.w3.org/1999/xlink" width="1920" zoomAndPan="magnify" viewBox="0 0 1440 809.999993" height="1080" preserveAspectRatio="xMidYMid meet" version="1.0"><defs><g/><clipPath id="fcf3e4dd3b"><path d="M 66 221 L 373.683594 221 L 373.683594 511.703125 L 66 511.703125 Z M 66 221 " clip-rule="nonzero"/></clipPath><clipPath id="e5936350a9"><path d="M 59 206.453125 L 173 206.453125 L 173 499 L 59 499 Z M 59 206.453125 " clip-rule="nonzero"/></clipPath><clipPath id="fc721b26b0"><path d="M 244 187 L 363 187 L 363 296 L 244 296 Z M 244 187 " clip-rule="nonzero"/></clipPath><clipPath id="b5854975fb"><path d="M 289.277344 157.695312 L 392.957031 227.96875 L 345.40625 298.121094 L 241.726562 227.851562 Z M 289.277344 157.695312 " clip-rule="nonzero"/></clipPath><clipPath id="95a2075fdc"><path d="M 289.277344 157.695312 L 392.957031 227.96875 L 345.40625 298.121094 L 241.726562 227.851562 Z M 289.277344 157.695312 " clip-rule="nonzero"/></clipPath></defs><path stroke-linecap="round" transform="matrix(0.000000001309, 0.75, -0.75, 0.000000001309, 57.032984, 277.06773)" fill="none" stroke-linejoin="miter" d="M 1.998235 2.002312 L 290.097208 2.002313 " stroke="#000000" stroke-width="4" stroke-opacity="1" stroke-miterlimit="4"/><g clip-path="url(#fcf3e4dd3b)"><path fill="#000000" d="M 373.460938 493.46875 L 214.757812 493.46875 C 210.007812 504.25 199.160156 511.695312 186.582031 511.566406 C 176.894531 511.4375 168.359375 506.753906 162.902344 499.628906 C 162.070312 498.539062 162.839844 497 164.25 497 L 185.300781 497.0625 L 194.988281 481.339844 L 185.300781 465.554688 L 164.25 465.488281 C 162.902344 465.488281 162.132812 463.949219 162.96875 462.855469 C 168.613281 455.542969 177.46875 450.855469 187.417969 450.984375 C 199.609375 451.175781 210.007812 458.558594 214.691406 469.019531 L 348.945312 469.019531 L 348.945312 335.917969 L 220.082031 250.824219 L 91.089844 335.917969 L 91.089844 470.367188 L 66.578125 470.367188 L 66.578125 322.699219 L 220.082031 221.433594 L 373.460938 322.699219 Z M 373.460938 493.46875 " fill-opacity="1" fill-rule="nonzero"/></g><path fill="#000000" d="M 285.285156 441.808594 L 321.734375 405.355469 L 321.734375 441.808594 Z M 285.285156 441.808594 " fill-opacity="1" fill-rule="nonzero"/><path fill="#ffbd59" d="M 344.839844 353.3125 L 233.175781 464.976562 L 250.4375 464.976562 L 250.4375 456.183594 C 250.4375 455.414062 251.078125 454.769531 251.847656 454.769531 C 252.617188 454.769531 253.261719 455.414062 253.261719 456.183594 L 253.261719 464.976562 L 262.886719 464.976562 L 262.886719 456.183594 C 262.886719 455.414062 263.527344 454.769531 264.300781 454.769531 C 265.070312 454.769531 265.710938 455.414062 265.710938 456.183594 L 265.710938 464.976562 L 275.335938 464.976562 L 275.335938 456.183594 C 275.335938 455.414062 275.980469 454.769531 276.75 454.769531 C 277.519531 454.769531 278.160156 455.414062 278.160156 456.183594 L 278.160156 464.976562 L 287.785156 464.976562 L 287.785156 456.183594 C 287.785156 455.414062 288.429688 454.769531 289.199219 454.769531 C 289.96875 454.769531 290.609375 455.414062 290.609375 456.183594 L 290.609375 464.976562 L 300.238281 464.976562 L 300.238281 456.183594 C 300.238281 455.414062 300.878906 454.769531 301.648438 454.769531 C 302.417969 454.769531 303.058594 455.414062 303.058594 456.183594 L 303.058594 464.976562 L 312.6875 464.976562 L 312.6875 456.183594 C 312.6875 455.414062 313.328125 454.769531 314.097656 454.769531 C 314.867188 454.769531 315.511719 455.414062 315.511719 456.183594 L 315.511719 464.976562 L 325.136719 464.976562 L 325.136719 456.183594 C 325.136719 455.414062 325.777344 454.769531 326.546875 454.769531 C 327.320312 454.769531 327.960938 455.414062 327.960938 456.183594 L 327.960938 464.976562 L 345.222656 464.976562 L 345.222656 447.710938 L 336.429688 447.710938 C 335.660156 447.710938 335.019531 447.070312 335.019531 446.300781 C 335.019531 445.53125 335.660156 444.886719 336.429688 444.886719 L 345.222656 444.886719 L 345.222656 435.261719 L 336.429688 435.261719 C 335.660156 435.261719 335.019531 434.621094 335.019531 433.851562 C 335.019531 433.082031 335.660156 432.4375 336.429688 432.4375 L 345.222656 432.4375 L 345.222656 422.8125 L 336.429688 422.8125 C 335.660156 422.8125 335.019531 422.171875 335.019531 421.402344 C 335.019531 420.628906 335.660156 419.988281 336.429688 419.988281 L 345.222656 419.988281 L 345.222656 410.363281 L 336.429688 410.363281 C 335.660156 410.363281 335.019531 409.71875 335.019531 408.949219 C 335.019531 408.179688 335.660156 407.539062 336.429688 407.539062 L 345.222656 407.539062 L 345.222656 397.914062 L 336.429688 397.914062 C 335.660156 397.914062 335.019531 397.269531 335.019531 396.5 C 335.019531 395.730469 335.660156 395.089844 336.429688 395.089844 L 345.222656 395.089844 L 345.222656 385.460938 L 336.429688 385.460938 C 335.660156 385.460938 335.019531 384.820312 335.019531 384.050781 C 335.019531 383.28125 335.660156 382.640625 336.429688 382.640625 L 345.222656 382.640625 L 345.222656 373.011719 L 336.429688 373.011719 C 335.660156 373.011719 335.019531 372.371094 335.019531 371.601562 C 335.019531 370.832031 335.660156 370.1875 336.429688 370.1875 L 345.222656 370.1875 L 345.222656 353.3125 Z M 322.761719 402.855469 C 323.789062 403.304688 324.496094 404.265625 324.496094 405.421875 L 324.496094 441.871094 C 324.496094 443.414062 323.277344 444.632812 321.734375 444.632812 L 285.285156 444.632812 C 284.128906 444.632812 283.167969 443.925781 282.71875 442.898438 C 282.589844 442.578125 282.523438 442.191406 282.523438 441.808594 C 282.523438 441.101562 282.78125 440.394531 283.359375 439.820312 L 319.808594 403.367188 C 320.515625 402.660156 321.734375 402.40625 322.761719 402.855469 Z M 322.761719 402.855469 " fill-opacity="1" fill-rule="nonzero"/><g clip-path="url(#e5936350a9)"><path fill="#ffbd59" d="M 135.4375 272.386719 L 110.921875 288.558594 L 110.921875 256.472656 L 135.4375 256.472656 Z M 167.78125 206.609375 C 163.351562 206.542969 158.988281 206.609375 154.558594 206.609375 C 153.40625 206.609375 152.570312 207.121094 152.058594 208.082031 C 150.773438 210.457031 147.371094 214.566406 143.714844 214.566406 C 138.964844 214.695312 135.820312 208.597656 131.394531 208.40625 C 122.28125 208.082031 113.167969 208.46875 104.054688 208.40625 C 85.957031 209.238281 71.261719 216.042969 59.324219 251.082031 C 59.132812 251.785156 58.683594 252.8125 59.515625 253.199219 C 62.855469 254.675781 77.808594 229.261719 98.855469 233.945312 C 110.855469 236.578125 111.050781 248.707031 110.921875 253.457031 L 135.5 253.457031 C 135.5 249.859375 135.5 246.265625 135.5 242.671875 C 135.5625 238.953125 136.71875 235.742188 139.605469 233.238281 C 141.597656 231.507812 144.675781 231.25 147.050781 232.339844 C 149.363281 233.433594 150.644531 235.421875 151.800781 237.476562 C 152.507812 238.757812 153.46875 239.335938 154.945312 239.273438 C 159.179688 239.207031 163.417969 239.273438 167.652344 239.273438 C 170.667969 239.273438 172.722656 237.21875 172.722656 234.203125 C 172.722656 226.695312 172.722656 219.1875 172.722656 211.742188 C 172.785156 208.789062 170.730469 206.671875 167.78125 206.609375 Z M 110.921875 329.179688 L 118.300781 329.179688 C 119.136719 329.179688 119.839844 329.886719 119.839844 330.722656 C 119.839844 331.554688 119.136719 332.261719 118.300781 332.261719 L 110.921875 332.261719 L 110.921875 338.871094 L 124.078125 338.871094 C 124.976562 338.871094 125.617188 339.578125 125.617188 340.410156 C 125.617188 341.246094 124.910156 341.953125 124.078125 341.953125 L 110.921875 341.953125 L 110.921875 348.5625 L 118.300781 348.5625 C 119.136719 348.5625 119.839844 349.269531 119.839844 350.101562 C 119.839844 350.9375 119.136719 351.640625 118.300781 351.640625 L 110.921875 351.640625 L 110.921875 358.253906 L 124.078125 358.253906 C 124.976562 358.253906 125.617188 358.957031 125.617188 359.792969 C 125.617188 360.628906 124.910156 361.332031 124.078125 361.332031 L 110.921875 361.332031 L 110.921875 367.941406 L 118.300781 367.941406 C 119.136719 367.941406 119.839844 368.648438 119.839844 369.484375 C 119.839844 370.316406 119.136719 371.023438 118.300781 371.023438 L 110.921875 371.023438 L 110.921875 377.632812 L 124.078125 377.632812 C 124.976562 377.632812 125.617188 378.339844 125.617188 379.171875 C 125.617188 380.007812 124.910156 380.714844 124.078125 380.714844 L 110.921875 380.714844 L 110.921875 387.324219 L 118.300781 387.324219 C 119.136719 387.324219 119.839844 388.03125 119.839844 388.863281 C 119.839844 389.699219 119.136719 390.402344 118.300781 390.402344 L 110.921875 390.402344 L 110.921875 397.207031 L 124.078125 397.207031 C 124.976562 397.207031 125.617188 397.914062 125.617188 398.746094 C 125.617188 399.582031 124.910156 400.285156 124.078125 400.285156 L 110.921875 400.285156 L 110.921875 406.898438 L 118.300781 406.898438 C 119.136719 406.898438 119.839844 407.601562 119.839844 408.4375 C 119.839844 409.269531 119.136719 409.976562 118.300781 409.976562 L 110.921875 409.976562 L 110.921875 416.652344 L 124.078125 416.652344 C 124.976562 416.652344 125.617188 417.359375 125.617188 418.191406 C 125.617188 419.027344 124.910156 419.730469 124.078125 419.730469 L 110.921875 419.730469 L 110.921875 426.34375 L 118.300781 426.34375 C 119.136719 426.34375 119.839844 427.046875 119.839844 427.882812 C 119.839844 428.714844 119.136719 429.421875 118.300781 429.421875 L 110.921875 429.421875 L 110.921875 436.097656 L 124.078125 436.097656 C 124.976562 436.097656 125.617188 436.800781 125.617188 437.636719 C 125.617188 438.472656 124.910156 439.175781 124.078125 439.175781 L 110.921875 439.175781 L 110.921875 445.851562 L 118.300781 445.851562 C 119.136719 445.851562 119.839844 446.558594 119.839844 447.390625 C 119.839844 448.226562 119.136719 448.929688 118.300781 448.929688 L 110.921875 448.929688 L 110.921875 455.605469 L 124.078125 455.605469 C 124.976562 455.605469 125.617188 456.3125 125.617188 457.144531 C 125.617188 457.980469 124.910156 458.6875 124.078125 458.6875 L 110.921875 458.6875 L 110.921875 465.230469 L 118.300781 465.230469 C 119.136719 465.230469 119.839844 465.9375 119.839844 466.773438 C 119.839844 467.605469 119.136719 468.3125 118.300781 468.3125 L 110.921875 468.3125 L 110.921875 473.894531 L 66.578125 473.894531 L 66.578125 498.410156 L 67.796875 498.410156 L 67.796875 491.03125 C 67.796875 490.132812 68.5 489.488281 69.335938 489.488281 C 70.171875 489.488281 70.875 490.195312 70.875 491.03125 L 70.875 498.410156 L 77.550781 498.410156 L 77.550781 485.253906 C 77.550781 484.355469 78.257812 483.714844 79.089844 483.714844 C 79.925781 483.714844 80.628906 484.421875 80.628906 485.253906 L 80.628906 498.410156 L 87.242188 498.410156 L 87.242188 491.03125 C 87.242188 490.132812 87.945312 489.488281 88.78125 489.488281 C 89.613281 489.488281 90.320312 490.195312 90.320312 491.03125 L 90.320312 498.410156 L 96.996094 498.410156 L 96.996094 485.253906 C 96.996094 484.355469 97.699219 483.714844 98.535156 483.714844 C 99.371094 483.714844 100.074219 484.421875 100.074219 485.253906 L 100.074219 498.410156 L 106.75 498.410156 L 106.75 491.03125 C 106.75 490.132812 107.457031 489.488281 108.289062 489.488281 C 109.125 489.488281 109.832031 490.195312 109.832031 491.03125 L 109.832031 498.410156 L 116.503906 498.410156 L 116.503906 485.253906 C 116.503906 484.355469 117.210938 483.714844 118.042969 483.714844 C 118.878906 483.714844 119.585938 484.421875 119.585938 485.253906 L 119.585938 498.410156 L 126.257812 498.410156 L 126.257812 491.03125 C 126.257812 490.132812 126.964844 489.488281 127.800781 489.488281 C 128.632812 489.488281 129.339844 490.195312 129.339844 491.03125 L 129.339844 498.410156 L 135.628906 498.410156 L 135.628906 312.6875 L 111.113281 328.859375 L 111.113281 329.179688 Z M 110.921875 329.179688 " fill-opacity="1" fill-rule="nonzero"/></g><path fill="#000000" d="M 185.042969 367.492188 L 217.707031 367.492188 L 217.707031 400.160156 L 189.726562 400.160156 C 187.160156 400.160156 185.042969 398.105469 185.042969 395.472656 Z M 222.328125 367.492188 L 222.328125 400.160156 L 250.308594 400.160156 C 252.875 400.160156 254.992188 398.105469 254.992188 395.472656 L 254.992188 367.492188 Z M 185.042969 334.828125 L 185.042969 362.808594 L 217.707031 362.808594 L 217.707031 330.144531 L 189.726562 330.144531 C 187.097656 330.207031 185.042969 332.261719 185.042969 334.828125 Z M 250.308594 330.207031 L 222.328125 330.207031 L 222.328125 362.875 L 254.992188 362.875 L 254.992188 334.894531 C 254.992188 332.261719 252.941406 330.207031 250.308594 330.207031 Z M 250.308594 330.207031 " fill-opacity="1" fill-rule="nonzero"/><path stroke-linecap="round" transform="matrix(0.62239, -0.418486, 0.418486, 0.62239, 31.73334, 334.151223)" fill="none" stroke-linejoin="miter" d="M 2.00178 2.000494 L 117.540672 2.000254 " stroke="#000000" stroke-width="4" stroke-opacity="1" stroke-miterlimit="4"/><g clip-path="url(#fc721b26b0)"><g clip-path="url(#b5854975fb)"><g clip-path="url(#95a2075fdc)"><path fill="#ffbd59" d="M 353.015625 272.308594 C 361.082031 260.40625 363.800781 246.464844 361.734375 233.300781 L 336.460938 254.261719 C 336.003906 254.640625 335.363281 254.65625 334.894531 254.335938 C 334.792969 254.269531 334.703125 254.1875 334.621094 254.089844 C 334.160156 253.53125 334.234375 252.710938 334.789062 252.25 L 361.1875 230.355469 C 359.25 221.285156 355.023438 212.691406 348.664062 205.539062 L 328.035156 230.285156 C 326.019531 233.09375 321.777344 233.585938 318.492188 231.359375 L 314.367188 228.5625 C 311.085938 226.335938 309.96875 222.214844 311.832031 219.304688 L 327.273438 190.789062 C 318.34375 187.386719 308.839844 186.464844 299.703125 187.855469 L 288.925781 221.164062 C 288.703125 221.851562 287.964844 222.226562 287.277344 222.003906 C 287.160156 221.964844 287.050781 221.910156 286.949219 221.839844 C 286.480469 221.523438 286.253906 220.921875 286.4375 220.355469 L 296.78125 188.386719 C 283.40625 191.171875 271.054688 198.949219 262.785156 211.152344 L 258.925781 216.847656 L 349.160156 278.003906 L 353.019531 272.308594 Z M 315.835938 226.398438 L 319.960938 229.195312 C 322.101562 230.644531 324.785156 230.421875 325.957031 228.695312 L 348.007812 202.246094 C 349.179688 200.519531 348.390625 197.945312 346.25 196.496094 L 336.46875 189.863281 C 334.328125 188.414062 331.644531 188.636719 330.476562 190.363281 L 314.078125 220.644531 C 312.90625 222.371094 313.695312 224.945312 315.835938 226.398438 Z M 347.992188 280.375 L 257.457031 219.011719 C 253.769531 216.511719 248.757812 217.472656 246.261719 221.160156 C 243.765625 224.84375 244.726562 229.855469 248.410156 232.355469 L 338.949219 293.71875 C 342.636719 296.21875 347.648438 295.253906 350.144531 291.570312 C 352.640625 287.882812 351.679688 282.871094 347.992188 280.375 Z M 347.992188 280.375 " fill-opacity="1" fill-rule="nonzero"/></g></g></g><path stroke-linecap="round" transform="matrix(0, 0.75, -0.75, 0, 386.789694, 298.489752)" fill="none" stroke-linejoin="miter" d="M 1.998039 2.000842 L 290.097012 2.000842 " stroke="#000000" stroke-width="4" stroke-opacity="1" stroke-miterlimit="4"/><g fill="#000000" fill-opacity="1"><g transform="translate(451.18885, 432.374998)"><g><path d="M 6.015625 -82.703125 L 36.1875 -82.703125 C 44.613281 -82.703125 51.429688 -80.53125 56.640625 -76.1875 C 61.847656 -71.84375 64.453125 -65.523438 64.453125 -57.234375 C 64.453125 -48.953125 61.8125 -42.453125 56.53125 -37.734375 C 51.257812 -33.023438 44.476562 -30.671875 36.1875 -30.671875 L 24.859375 -30.671875 L 24.859375 0 L 6.015625 0 Z M 24.859375 -45.71875 L 30.171875 -45.71875 C 34.378906 -45.71875 37.835938 -46.566406 40.546875 -48.265625 C 43.253906 -49.972656 44.609375 -52.765625 44.609375 -56.640625 C 44.609375 -60.585938 43.253906 -63.410156 40.546875 -65.109375 C 37.835938 -66.816406 34.378906 -67.671875 30.171875 -67.671875 L 24.859375 -67.671875 Z M 24.859375 -45.71875 "/></g></g></g><g fill="#000000" fill-opacity="1"><g transform="translate(522.962619, 432.374998)"><g><path d="M 6.015625 -82.703125 L 35.59375 -82.703125 C 43.539062 -82.703125 50.019531 -80.578125 55.03125 -76.328125 C 60.050781 -72.085938 62.5625 -66.023438 62.5625 -58.140625 C 62.5625 -52.054688 61.039062 -46.957031 58 -42.84375 C 54.957031 -38.738281 50.828125 -35.851562 45.609375 -34.1875 L 74.078125 0 L 50.125 0 L 24.859375 -32.6875 L 24.859375 0 L 6.015625 0 Z M 24.859375 -46.015625 L 27.0625 -46.015625 C 28.800781 -46.015625 30.269531 -46.046875 31.46875 -46.109375 C 32.675781 -46.179688 34.046875 -46.414062 35.578125 -46.8125 C 37.117188 -47.21875 38.359375 -47.785156 39.296875 -48.515625 C 40.234375 -49.253906 41.035156 -50.320312 41.703125 -51.71875 C 42.367188 -53.125 42.703125 -54.828125 42.703125 -56.828125 C 42.703125 -58.835938 42.367188 -60.546875 41.703125 -61.953125 C 41.035156 -63.359375 40.234375 -64.425781 39.296875 -65.15625 C 38.359375 -65.894531 37.117188 -66.460938 35.578125 -66.859375 C 34.046875 -67.265625 32.675781 -67.5 31.46875 -67.5625 C 30.269531 -67.632812 28.800781 -67.671875 27.0625 -67.671875 L 24.859375 -67.671875 Z M 24.859375 -46.015625 "/></g></g></g><g fill="#000000" fill-opacity="1"><g transform="translate(599.7485, 432.374998)"><g><path d="M 2.3125 -41.40625 C 2.3125 -53.363281 6.382812 -63.484375 14.53125 -71.765625 C 22.6875 -80.054688 32.515625 -84.203125 44.015625 -84.203125 C 55.578125 -84.203125 65.398438 -80.078125 73.484375 -71.828125 C 81.566406 -63.578125 85.609375 -53.4375 85.609375 -41.40625 C 85.609375 -29.3125 81.628906 -19.132812 73.671875 -10.875 C 65.722656 -2.625 55.835938 1.5 44.015625 1.5 C 31.910156 1.5 21.929688 -2.59375 14.078125 -10.78125 C 6.234375 -18.96875 2.3125 -29.175781 2.3125 -41.40625 Z M 22.65625 -41.40625 C 22.65625 -37.0625 23.320312 -33.097656 24.65625 -29.515625 C 26 -25.941406 28.335938 -22.914062 31.671875 -20.4375 C 35.015625 -17.96875 39.128906 -16.734375 44.015625 -16.734375 C 51.023438 -16.734375 56.316406 -19.140625 59.890625 -23.953125 C 63.472656 -28.765625 65.265625 -34.582031 65.265625 -41.40625 C 65.265625 -48.15625 63.441406 -53.953125 59.796875 -58.796875 C 56.148438 -63.640625 50.890625 -66.0625 44.015625 -66.0625 C 37.191406 -66.0625 31.925781 -63.640625 28.21875 -58.796875 C 24.507812 -53.953125 22.65625 -48.15625 22.65625 -41.40625 Z M 22.65625 -41.40625 "/></g></g></g><g fill="#000000" fill-opacity="1"><g transform="translate(692.673365, 432.374998)"><g/></g></g><g fill="#000000" fill-opacity="1"><g transform="translate(725.051949, 432.374998)"><g><path d="M 69.578125 -82.703125 L 69.578125 -29.375 C 69.578125 -19.21875 66.832031 -11.53125 61.34375 -6.3125 C 55.863281 -1.101562 47.84375 1.5 37.28125 1.5 C 26.726562 1.5 18.710938 -1.101562 13.234375 -6.3125 C 7.753906 -11.53125 5.015625 -19.21875 5.015625 -29.375 L 5.015625 -82.703125 L 23.859375 -82.703125 L 23.859375 -34.890625 C 23.859375 -28.203125 24.910156 -23.554688 27.015625 -20.953125 C 29.117188 -18.347656 32.539062 -17.046875 37.28125 -17.046875 C 42.03125 -17.046875 45.457031 -18.347656 47.5625 -20.953125 C 49.664062 -23.554688 50.71875 -28.203125 50.71875 -34.890625 L 50.71875 -82.703125 Z M 69.578125 -82.703125 "/></g></g></g><g fill="#000000" fill-opacity="1"><g transform="translate(795.622556, 432.374998)"><g><path d="M -3 -82.703125 L 19.65625 -82.703125 L 36.890625 -56.234375 L 54.140625 -82.703125 L 76.796875 -82.703125 L 46.3125 -37.09375 L 46.3125 0 L 27.46875 0 L 27.46875 -37.09375 Z M -3 -82.703125 "/></g></g></g><g fill="#000000" fill-opacity="1"><g transform="translate(874.41327, 432.374998)"><g><path d="M 80.796875 -46.3125 L 80.796875 -28.375 C 78.660156 -18.550781 73.984375 -11.113281 66.765625 -6.0625 C 59.546875 -1.019531 51.492188 1.5 42.609375 1.5 C 31.441406 1.5 21.929688 -2.675781 14.078125 -11.03125 C 6.234375 -19.382812 2.3125 -29.472656 2.3125 -41.296875 C 2.3125 -53.328125 6.148438 -63.484375 13.828125 -71.765625 C 21.515625 -80.054688 31.109375 -84.203125 42.609375 -84.203125 C 56.035156 -84.203125 66.660156 -79.492188 74.484375 -70.078125 L 62.15625 -56.546875 C 57.738281 -63.628906 51.585938 -67.171875 43.703125 -67.171875 C 37.890625 -67.171875 32.925781 -64.644531 28.8125 -59.59375 C 24.707031 -54.550781 22.65625 -48.453125 22.65625 -41.296875 C 22.65625 -34.285156 24.707031 -28.289062 28.8125 -23.3125 C 32.925781 -18.332031 37.890625 -15.84375 43.703125 -15.84375 C 48.515625 -15.84375 52.707031 -17.296875 56.28125 -20.203125 C 59.863281 -23.109375 61.65625 -26.96875 61.65625 -31.78125 L 42.609375 -31.78125 L 42.609375 -46.3125 Z M 80.796875 -46.3125 "/></g></g></g><g fill="#000000" fill-opacity="1"><g transform="translate(962.526502, 432.374998)"><g><path d="M 69.578125 -82.703125 L 69.578125 -29.375 C 69.578125 -19.21875 66.832031 -11.53125 61.34375 -6.3125 C 55.863281 -1.101562 47.84375 1.5 37.28125 1.5 C 26.726562 1.5 18.710938 -1.101562 13.234375 -6.3125 C 7.753906 -11.53125 5.015625 -19.21875 5.015625 -29.375 L 5.015625 -82.703125 L 23.859375 -82.703125 L 23.859375 -34.890625 C 23.859375 -28.203125 24.910156 -23.554688 27.015625 -20.953125 C 29.117188 -18.347656 32.539062 -17.046875 37.28125 -17.046875 C 42.03125 -17.046875 45.457031 -18.347656 47.5625 -20.953125 C 49.664062 -23.554688 50.71875 -28.203125 50.71875 -34.890625 L 50.71875 -82.703125 Z M 69.578125 -82.703125 "/></g></g></g><g fill="#000000" fill-opacity="1"><g transform="translate(1042.119195, 432.374998)"><g><path d="M 24.859375 -82.703125 L 24.859375 -16.546875 L 53.328125 -16.546875 L 53.328125 0 L 6.015625 0 L 6.015625 -82.703125 Z M 24.859375 -82.703125 "/></g></g></g><g fill="#000000" fill-opacity="1"><g transform="translate(1105.272176, 432.374998)"><g><path d="M 48.015625 -82.703125 L 81.40625 0 L 61.15625 0 L 55.03125 -16.546875 L 23.5625 -16.546875 L 17.4375 0 L -2.8125 0 L 30.578125 -82.703125 Z M 48.625 -33.078125 L 39.390625 -57.140625 L 39.203125 -57.140625 L 29.96875 -33.078125 Z M 48.625 -33.078125 "/></g></g></g><g fill="#000000" fill-opacity="1"><g transform="translate(1188.874512, 432.374998)"><g><path d="M 74.390625 0 L 70.46875 -49.015625 L 69.96875 -49.015625 L 53.03125 -0.5 L 41.796875 -0.5 L 24.859375 -49.015625 L 24.359375 -49.015625 L 20.453125 0 L 1.609375 0 L 9.015625 -82.703125 L 29.078125 -82.703125 L 47.421875 -34.984375 L 65.765625 -82.703125 L 85.8125 -82.703125 L 93.234375 0 Z M 74.390625 0 "/></g></g></g><g fill="#000000" fill-opacity="1"><g transform="translate(1288.71606, 432.374998)"><g><path d="M 48.015625 -82.703125 L 81.40625 0 L 61.15625 0 L 55.03125 -16.546875 L 23.5625 -16.546875 L 17.4375 0 L -2.8125 0 L 30.578125 -82.703125 Z M 48.625 -33.078125 L 39.390625 -57.140625 L 39.203125 -57.140625 L 29.96875 -33.078125 Z M 48.625 -33.078125 "/></g></g></g><path stroke-linecap="round" transform="matrix(0.75, -0.000000000000000651, 0.000000000000000651, 0.75, 216.073882, 501.740971)" fill="none" stroke-linejoin="miter" d="M 2.000449 2.001622 L 275.052547 2.001622 " stroke="#000000" stroke-width="4" stroke-opacity="1" stroke-miterlimit="4"/></svg>