<svg xmlns="http://www.w3.org/2000/svg" xmlns:xlink="http://www.w3.org/1999/xlink" width="1920" zoomAndPan="magnify" viewBox="0 0 1440 809.999993" height="1080" preserveAspectRatio="xMidYMid meet" version="1.0"><defs><g/><clipPath id="97c546a522"><path d="M 392 236 L 699.410156 236 L 699.410156 526.617188 L 392 526.617188 Z M 392 236 " clip-rule="nonzero"/></clipPath><clipPath id="040c6c1ebd"><path d="M 384.410156 221.367188 L 499 221.367188 L 499 514 L 384.410156 514 Z M 384.410156 221.367188 " clip-rule="nonzero"/></clipPath><clipPath id="14ff647554"><path d="M 570 202 L 689 202 L 689 311 L 570 311 Z M 570 202 " clip-rule="nonzero"/></clipPath><clipPath id="34d4512a44"><path d="M 615.003906 172.609375 L 718.683594 242.878906 L 671.132812 313.035156 L 567.457031 242.761719 Z M 615.003906 172.609375 " clip-rule="nonzero"/></clipPath><clipPath id="f55339904f"><path d="M 615.003906 172.609375 L 718.683594 242.878906 L 671.132812 313.035156 L 567.457031 242.761719 Z M 615.003906 172.609375 " clip-rule="nonzero"/></clipPath><clipPath id="2b22cd3d2f"><rect x="0" width="466" y="0" height="154"/></clipPath></defs><path stroke-linecap="round" transform="matrix(0.000000001309, 0.75, -0.75, 0.000000001309, 382.761549, 291.980571)" fill="none" stroke-linejoin="miter" d="M 1.999864 1.999773 L 290.098837 1.999774 " stroke="#012759" stroke-width="4" stroke-opacity="1" stroke-miterlimit="4"/><g clip-path="url(#97c546a522)"><path fill="#13547a" d="M 699.1875 508.382812 L 540.484375 508.382812 C 535.734375 519.164062 524.890625 526.605469 512.3125 526.480469 C 502.621094 526.351562 494.085938 521.664062 488.632812 514.542969 C 487.796875 513.453125 488.566406 511.910156 489.980469 511.910156 L 511.027344 511.976562 L 520.71875 496.253906 L 511.027344 480.464844 L 489.980469 480.402344 C 488.632812 480.402344 487.859375 478.859375 488.695312 477.769531 C 494.34375 470.453125 503.199219 465.769531 513.144531 465.898438 C 525.339844 466.089844 535.734375 473.46875 540.421875 483.929688 L 674.675781 483.929688 L 674.675781 350.832031 L 545.8125 265.738281 L 416.820312 350.832031 L 416.820312 485.277344 L 392.304688 485.277344 L 392.304688 337.613281 L 545.8125 236.34375 L 699.1875 337.613281 Z M 699.1875 508.382812 " fill-opacity="1" fill-rule="nonzero"/></g><path fill="#13547a" d="M 611.011719 456.722656 L 647.464844 420.269531 L 647.464844 456.722656 Z M 611.011719 456.722656 " fill-opacity="1" fill-rule="nonzero"/><path fill="#ffbd59" d="M 670.566406 368.222656 L 558.902344 479.886719 L 576.164062 479.886719 L 576.164062 471.097656 C 576.164062 470.324219 576.808594 469.683594 577.578125 469.683594 C 578.347656 469.683594 578.988281 470.324219 578.988281 471.097656 L 578.988281 479.886719 L 588.617188 479.886719 L 588.617188 471.097656 C 588.617188 470.324219 589.257812 469.683594 590.027344 469.683594 C 590.796875 469.683594 591.4375 470.324219 591.4375 471.097656 L 591.4375 479.886719 L 601.066406 479.886719 L 601.066406 471.097656 C 601.066406 470.324219 601.707031 469.683594 602.476562 469.683594 C 603.246094 469.683594 603.890625 470.324219 603.890625 471.097656 L 603.890625 479.886719 L 613.515625 479.886719 L 613.515625 471.097656 C 613.515625 470.324219 614.15625 469.683594 614.925781 469.683594 C 615.699219 469.683594 616.339844 470.324219 616.339844 471.097656 L 616.339844 479.886719 L 625.964844 479.886719 L 625.964844 471.097656 C 625.964844 470.324219 626.605469 469.683594 627.378906 469.683594 C 628.148438 469.683594 628.789062 470.324219 628.789062 471.097656 L 628.789062 479.886719 L 638.414062 479.886719 L 638.414062 471.097656 C 638.414062 470.324219 639.058594 469.683594 639.828125 469.683594 C 640.597656 469.683594 641.238281 470.324219 641.238281 471.097656 L 641.238281 479.886719 L 650.863281 479.886719 L 650.863281 471.097656 C 650.863281 470.324219 651.507812 469.683594 652.277344 469.683594 C 653.046875 469.683594 653.6875 470.324219 653.6875 471.097656 L 653.6875 479.886719 L 670.953125 479.886719 L 670.953125 462.625 L 662.160156 462.625 C 661.390625 462.625 660.75 461.984375 660.75 461.214844 C 660.75 460.441406 661.390625 459.800781 662.160156 459.800781 L 670.953125 459.800781 L 670.953125 450.175781 L 662.160156 450.175781 C 661.390625 450.175781 660.75 449.535156 660.75 448.761719 C 660.75 447.992188 661.390625 447.351562 662.160156 447.351562 L 670.953125 447.351562 L 670.953125 437.726562 L 662.160156 437.726562 C 661.390625 437.726562 660.75 437.082031 660.75 436.3125 C 660.75 435.542969 661.390625 434.902344 662.160156 434.902344 L 670.953125 434.902344 L 670.953125 425.273438 L 662.160156 425.273438 C 661.390625 425.273438 660.75 424.632812 660.75 423.863281 C 660.75 423.09375 661.390625 422.453125 662.160156 422.453125 L 670.953125 422.453125 L 670.953125 412.824219 L 662.160156 412.824219 C 661.390625 412.824219 660.75 412.183594 660.75 411.414062 C 660.75 410.644531 661.390625 410 662.160156 410 L 670.953125 410 L 670.953125 400.375 L 662.160156 400.375 C 661.390625 400.375 660.75 399.734375 660.75 398.964844 C 660.75 398.195312 661.390625 397.550781 662.160156 397.550781 L 670.953125 397.550781 L 670.953125 387.925781 L 662.160156 387.925781 C 661.390625 387.925781 660.75 387.285156 660.75 386.511719 C 660.75 385.742188 661.390625 385.101562 662.160156 385.101562 L 670.953125 385.101562 L 670.953125 368.222656 Z M 648.492188 417.765625 C 649.515625 418.214844 650.222656 419.179688 650.222656 420.332031 L 650.222656 456.785156 C 650.222656 458.324219 649.003906 459.542969 647.464844 459.542969 L 611.011719 459.542969 C 609.859375 459.542969 608.894531 458.839844 608.445312 457.8125 C 608.316406 457.492188 608.253906 457.105469 608.253906 456.722656 C 608.253906 456.015625 608.511719 455.308594 609.085938 454.730469 L 645.539062 418.28125 C 646.246094 417.574219 647.464844 417.316406 648.492188 417.765625 Z M 648.492188 417.765625 " fill-opacity="1" fill-rule="nonzero"/><g clip-path="url(#040c6c1ebd)"><path fill="#ffbd59" d="M 461.164062 287.300781 L 436.648438 303.472656 L 436.648438 271.382812 L 461.164062 271.382812 Z M 493.507812 221.519531 C 489.082031 221.457031 484.714844 221.519531 480.289062 221.519531 C 479.132812 221.519531 478.300781 222.035156 477.785156 222.996094 C 476.503906 225.371094 473.101562 229.476562 469.441406 229.476562 C 464.695312 229.605469 461.550781 223.511719 457.121094 223.316406 C 448.007812 222.996094 438.894531 223.382812 429.78125 223.316406 C 411.6875 224.152344 396.988281 230.953125 385.054688 265.992188 C 384.859375 266.699219 384.410156 267.726562 385.246094 268.109375 C 388.582031 269.585938 403.535156 244.175781 424.585938 248.859375 C 436.585938 251.488281 436.777344 263.617188 436.648438 268.367188 L 461.230469 268.367188 C 461.230469 264.773438 461.230469 261.179688 461.230469 257.585938 C 461.292969 253.863281 462.449219 250.65625 465.335938 248.152344 C 467.324219 246.421875 470.40625 246.164062 472.78125 247.253906 C 475.089844 248.34375 476.375 250.335938 477.527344 252.386719 C 478.234375 253.671875 479.199219 254.25 480.671875 254.183594 C 484.910156 254.121094 489.144531 254.183594 493.378906 254.183594 C 496.394531 254.183594 498.449219 252.132812 498.449219 249.117188 C 498.449219 241.605469 498.449219 234.097656 498.449219 226.65625 C 498.515625 223.703125 496.460938 221.585938 493.507812 221.519531 Z M 436.648438 344.09375 L 444.03125 344.09375 C 444.863281 344.09375 445.570312 344.800781 445.570312 345.632812 C 445.570312 346.46875 444.863281 347.175781 444.03125 347.175781 L 436.648438 347.175781 L 436.648438 353.785156 L 449.804688 353.785156 C 450.703125 353.785156 451.347656 354.492188 451.347656 355.324219 C 451.347656 356.160156 450.640625 356.863281 449.804688 356.863281 L 436.648438 356.863281 L 436.648438 363.476562 L 444.03125 363.476562 C 444.863281 363.476562 445.570312 364.179688 445.570312 365.015625 C 445.570312 365.847656 444.863281 366.554688 444.03125 366.554688 L 436.648438 366.554688 L 436.648438 373.164062 L 449.804688 373.164062 C 450.703125 373.164062 451.347656 373.871094 451.347656 374.707031 C 451.347656 375.539062 450.640625 376.246094 449.804688 376.246094 L 436.648438 376.246094 L 436.648438 382.855469 L 444.03125 382.855469 C 444.863281 382.855469 445.570312 383.5625 445.570312 384.394531 C 445.570312 385.230469 444.863281 385.9375 444.03125 385.9375 L 436.648438 385.9375 L 436.648438 392.546875 L 449.804688 392.546875 C 450.703125 392.546875 451.347656 393.253906 451.347656 394.085938 C 451.347656 394.921875 450.640625 395.625 449.804688 395.625 L 436.648438 395.625 L 436.648438 402.238281 L 444.03125 402.238281 C 444.863281 402.238281 445.570312 402.941406 445.570312 403.777344 C 445.570312 404.609375 444.863281 405.316406 444.03125 405.316406 L 436.648438 405.316406 L 436.648438 412.121094 L 449.804688 412.121094 C 450.703125 412.121094 451.347656 412.824219 451.347656 413.660156 C 451.347656 414.492188 450.640625 415.199219 449.804688 415.199219 L 436.648438 415.199219 L 436.648438 421.808594 L 444.03125 421.808594 C 444.863281 421.808594 445.570312 422.515625 445.570312 423.351562 C 445.570312 424.183594 444.863281 424.890625 444.03125 424.890625 L 436.648438 424.890625 L 436.648438 431.5625 L 449.804688 431.5625 C 450.703125 431.5625 451.347656 432.269531 451.347656 433.105469 C 451.347656 433.9375 450.640625 434.644531 449.804688 434.644531 L 436.648438 434.644531 L 436.648438 441.253906 L 444.03125 441.253906 C 444.863281 441.253906 445.570312 441.960938 445.570312 442.796875 C 445.570312 443.628906 444.863281 444.335938 444.03125 444.335938 L 436.648438 444.335938 L 436.648438 451.007812 L 449.804688 451.007812 C 450.703125 451.007812 451.347656 451.714844 451.347656 452.550781 C 451.347656 453.382812 450.640625 454.089844 449.804688 454.089844 L 436.648438 454.089844 L 436.648438 460.765625 L 444.03125 460.765625 C 444.863281 460.765625 445.570312 461.46875 445.570312 462.304688 C 445.570312 463.136719 444.863281 463.84375 444.03125 463.84375 L 436.648438 463.84375 L 436.648438 470.519531 L 449.804688 470.519531 C 450.703125 470.519531 451.347656 471.222656 451.347656 472.058594 C 451.347656 472.894531 450.640625 473.597656 449.804688 473.597656 L 436.648438 473.597656 L 436.648438 480.144531 L 444.03125 480.144531 C 444.863281 480.144531 445.570312 480.851562 445.570312 481.683594 C 445.570312 482.519531 444.863281 483.226562 444.03125 483.226562 L 436.648438 483.226562 L 436.648438 488.808594 L 392.304688 488.808594 L 392.304688 513.324219 L 393.523438 513.324219 L 393.523438 505.941406 C 393.523438 505.042969 394.230469 504.402344 395.0625 504.402344 C 395.898438 504.402344 396.605469 505.109375 396.605469 505.941406 L 396.605469 513.324219 L 403.277344 513.324219 L 403.277344 500.167969 C 403.277344 499.269531 403.984375 498.628906 404.820312 498.628906 C 405.652344 498.628906 406.359375 499.332031 406.359375 500.167969 L 406.359375 513.324219 L 412.96875 513.324219 L 412.96875 505.941406 C 412.96875 505.042969 413.675781 504.402344 414.507812 504.402344 C 415.34375 504.402344 416.050781 505.109375 416.050781 505.941406 L 416.050781 513.324219 L 422.722656 513.324219 L 422.722656 500.167969 C 422.722656 499.269531 423.429688 498.628906 424.265625 498.628906 C 425.097656 498.628906 425.804688 499.332031 425.804688 500.167969 L 425.804688 513.324219 L 432.476562 513.324219 L 432.476562 505.941406 C 432.476562 505.042969 433.183594 504.402344 434.019531 504.402344 C 434.851562 504.402344 435.558594 505.109375 435.558594 505.941406 L 435.558594 513.324219 L 442.234375 513.324219 L 442.234375 500.167969 C 442.234375 499.269531 442.9375 498.628906 443.773438 498.628906 C 444.605469 498.628906 445.3125 499.332031 445.3125 500.167969 L 445.3125 513.324219 L 451.988281 513.324219 L 451.988281 505.941406 C 451.988281 505.042969 452.695312 504.402344 453.527344 504.402344 C 454.363281 504.402344 455.066406 505.109375 455.066406 505.941406 L 455.066406 513.324219 L 461.355469 513.324219 L 461.355469 327.601562 L 436.84375 343.773438 L 436.84375 344.09375 Z M 436.648438 344.09375 " fill-opacity="1" fill-rule="nonzero"/></g><path fill="#13547a" d="M 510.773438 382.40625 L 543.4375 382.40625 L 543.4375 415.070312 L 515.457031 415.070312 C 512.890625 415.070312 510.773438 413.019531 510.773438 410.386719 Z M 548.058594 382.40625 L 548.058594 415.070312 L 576.039062 415.070312 C 578.605469 415.070312 580.722656 413.019531 580.722656 410.386719 L 580.722656 382.40625 Z M 510.773438 349.742188 L 510.773438 377.722656 L 543.4375 377.722656 L 543.4375 345.058594 L 515.457031 345.058594 C 512.824219 345.121094 510.773438 347.175781 510.773438 349.742188 Z M 576.039062 345.121094 L 548.058594 345.121094 L 548.058594 377.785156 L 580.722656 377.785156 L 580.722656 349.804688 C 580.722656 347.175781 578.667969 345.121094 576.039062 345.121094 Z M 576.039062 345.121094 " fill-opacity="1" fill-rule="nonzero"/><path stroke-linecap="round" transform="matrix(0.62239, -0.418486, 0.418486, 0.62239, 357.461911, 349.064124)" fill="none" stroke-linejoin="miter" d="M 1.998692 2.000284 L 117.541907 2.00295 " stroke="#012759" stroke-width="4" stroke-opacity="1" stroke-miterlimit="4"/><g clip-path="url(#14ff647554)"><g clip-path="url(#34d4512a44)"><g clip-path="url(#f55339904f)"><path fill="#13547a" d="M 678.746094 287.222656 C 686.8125 275.320312 689.53125 261.378906 687.464844 248.214844 L 662.191406 269.175781 C 661.730469 269.554688 661.089844 269.566406 660.621094 269.25 C 660.523438 269.183594 660.429688 269.101562 660.347656 269.003906 C 659.886719 268.445312 659.964844 267.625 660.519531 267.160156 L 686.914062 245.269531 C 684.980469 236.195312 680.753906 227.605469 674.394531 220.453125 L 653.761719 245.199219 C 651.75 248.007812 647.503906 248.496094 644.222656 246.273438 L 640.09375 243.476562 C 636.8125 241.25 635.695312 237.125 637.558594 234.214844 L 653 205.703125 C 644.070312 202.296875 634.570312 201.378906 625.433594 202.769531 L 614.65625 236.074219 C 614.433594 236.761719 613.695312 237.140625 613.007812 236.917969 C 612.886719 236.875 612.777344 236.820312 612.675781 236.753906 C 612.207031 236.433594 611.984375 235.835938 612.167969 235.269531 L 622.511719 203.300781 C 609.136719 206.085938 596.785156 213.863281 588.511719 226.0625 L 584.652344 231.757812 L 674.886719 292.917969 Z M 641.5625 241.308594 L 645.6875 244.105469 C 647.828125 245.558594 650.511719 245.335938 651.683594 243.609375 L 673.738281 217.160156 C 674.90625 215.433594 674.117188 212.859375 671.980469 211.410156 L 662.195312 204.777344 C 660.054688 203.328125 657.375 203.546875 656.203125 205.273438 L 639.804688 235.558594 C 638.636719 237.285156 639.421875 239.859375 641.5625 241.308594 Z M 673.722656 295.289062 L 583.183594 233.921875 C 579.5 231.425781 574.488281 232.386719 571.992188 236.070312 C 569.492188 239.757812 570.453125 244.769531 574.140625 247.265625 L 664.679688 308.632812 C 668.363281 311.128906 673.375 310.167969 675.875 306.480469 C 678.371094 302.796875 677.40625 297.785156 673.722656 295.289062 Z M 673.722656 295.289062 " fill-opacity="1" fill-rule="nonzero"/></g></g></g><path stroke-linecap="round" transform="matrix(0, 0.75, -0.75, 0, 712.518258, 313.402651)" fill="none" stroke-linejoin="miter" d="M 1.999591 1.998303 L 290.098564 1.998303 " stroke="#012759" stroke-width="4" stroke-opacity="1" stroke-miterlimit="4"/><g transform="matrix(1, 0, 0, 1, 716, 337)"><g clip-path="url(#2b22cd3d2f)"><g fill="#ffbd59" fill-opacity="1"><g transform="translate(149.130279, 59.578285)"><g><path d="M 24.703125 0 L 1.375 0 L 1.375 -1.671875 L 6.171875 -1.671875 L 6.171875 -53.140625 L 1.375 -53.140625 L 1.375 -54.90625 L 34.625 -54.90625 C 37.164062 -54.90625 39.460938 -54.28125 41.515625 -53.03125 C 43.578125 -51.78125 45.226562 -50.113281 46.46875 -48.03125 C 47.71875 -45.945312 48.34375 -43.660156 48.34375 -41.171875 L 48.34375 -26.765625 C 48.34375 -24.273438 47.71875 -21.988281 46.46875 -19.90625 C 45.226562 -17.820312 43.578125 -16.15625 41.515625 -14.90625 C 39.460938 -13.65625 37.164062 -13.03125 34.625 -13.03125 L 19.90625 -13.03125 L 19.90625 -1.671875 L 24.703125 -1.671875 Z M 34.625 -22.953125 L 34.625 -44.90625 L 19.90625 -44.90625 L 19.90625 -22.953125 Z M 34.625 -22.953125 "/></g></g></g><g fill="#ffbd59" fill-opacity="1"><g transform="translate(202.731681, 59.578285)"><g><path d="M 52.078125 0 L 32.640625 0 L 25.15625 -18.140625 L 19.90625 -18.140625 L 19.90625 -1.671875 L 24.703125 -1.671875 L 24.703125 0 L 1.375 0 L 1.375 -1.671875 L 6.171875 -1.671875 L 6.171875 -53.140625 L 1.375 -53.140625 L 1.375 -54.90625 L 35 -54.90625 C 37.488281 -54.90625 39.773438 -54.28125 41.859375 -53.03125 C 43.941406 -51.78125 45.601562 -50.113281 46.84375 -48.03125 C 48.09375 -45.945312 48.71875 -43.660156 48.71875 -41.171875 L 48.71875 -31.875 C 48.71875 -29.738281 48.25 -27.742188 47.3125 -25.890625 C 46.375 -24.035156 45.101562 -22.457031 43.5 -21.15625 C 41.894531 -19.863281 40.078125 -18.960938 38.046875 -18.453125 L 47.203125 -1.671875 L 52.078125 -1.671875 Z M 35 -28.140625 L 35 -44.90625 L 19.90625 -44.90625 L 19.90625 -28.140625 Z M 35 -28.140625 "/></g></g></g><g fill="#ffbd59" fill-opacity="1"><g transform="translate(258.925492, 59.578285)"><g><path d="M 36.375 0 L 17.15625 0 C 14.664062 0 12.378906 -0.617188 10.296875 -1.859375 C 8.210938 -3.109375 6.546875 -4.773438 5.296875 -6.859375 C 4.054688 -8.941406 3.4375 -11.226562 3.4375 -13.71875 L 3.4375 -41.171875 C 3.4375 -43.660156 4.054688 -45.945312 5.296875 -48.03125 C 6.546875 -50.113281 8.210938 -51.78125 10.296875 -53.03125 C 12.378906 -54.28125 14.664062 -54.90625 17.15625 -54.90625 L 36.375 -54.90625 C 38.863281 -54.90625 41.148438 -54.28125 43.234375 -53.03125 C 45.316406 -51.78125 46.976562 -50.113281 48.21875 -48.03125 C 49.46875 -45.945312 50.09375 -43.660156 50.09375 -41.171875 L 50.09375 -13.71875 C 50.09375 -11.226562 49.46875 -8.941406 48.21875 -6.859375 C 46.976562 -4.773438 45.316406 -3.109375 43.234375 -1.859375 C 41.148438 -0.617188 38.863281 0 36.375 0 Z M 36.375 -9.90625 L 36.375 -44.90625 L 17.15625 -44.90625 L 17.15625 -9.90625 Z M 36.375 -9.90625 "/></g></g></g><g fill="#ffbd59" fill-opacity="1"><g transform="translate(0.731798, 142.598415)"><g><path d="M 52.15625 -53.140625 L 47.34375 -53.140625 L 47.34375 -13.71875 C 47.34375 -11.226562 46.71875 -8.941406 45.46875 -6.859375 C 44.226562 -4.773438 42.566406 -3.109375 40.484375 -1.859375 C 38.398438 -0.617188 36.113281 0 33.625 0 L 19.90625 0 C 17.414062 0 15.125 -0.617188 13.03125 -1.859375 C 10.945312 -3.109375 9.28125 -4.773438 8.03125 -6.859375 C 6.789062 -8.941406 6.171875 -11.226562 6.171875 -13.71875 L 6.171875 -53.140625 L 1.375 -53.140625 L 1.375 -54.90625 L 24.703125 -54.90625 L 24.703125 -53.140625 L 19.90625 -53.140625 L 19.90625 -9.90625 L 37.359375 -9.90625 L 37.359375 -53.140625 L 32.5625 -53.140625 L 32.5625 -54.90625 L 52.15625 -54.90625 Z M 52.15625 -53.140625 "/></g></g></g><g fill="#ffbd59" fill-opacity="1"><g transform="translate(58.069292, 142.598415)"><g><path d="M 54.515625 -53.140625 L 49.25 -53.140625 L 34.46875 -18.296875 L 34.46875 -1.671875 L 39.265625 -1.671875 L 39.265625 0 L 15.9375 0 L 15.9375 -1.671875 L 20.734375 -1.671875 L 20.734375 -18.296875 L 5.875 -53.140625 L 0.6875 -53.140625 L 0.6875 -54.90625 L 24.328125 -54.90625 L 24.328125 -53.140625 L 19.828125 -53.140625 L 29.125 -30.5 L 29.65625 -30.5 L 38.96875 -53.140625 L 34.546875 -53.140625 L 34.546875 -54.90625 L 54.515625 -54.90625 Z M 54.515625 -53.140625 "/></g></g></g><g fill="#ffbd59" fill-opacity="1"><g transform="translate(115.330469, 142.598415)"><g><path d="M 41.859375 -37.75 L 40.109375 -37.75 L 40.109375 -43.234375 L 17.15625 -44.90625 L 17.15625 -9.90625 L 29.8125 -10.828125 L 29.8125 -25.703125 L 25.015625 -25.703125 L 25.015625 -27.453125 L 43.53125 -27.453125 L 43.53125 0 L 17.15625 0 C 14.664062 0 12.378906 -0.617188 10.296875 -1.859375 C 8.210938 -3.109375 6.546875 -4.773438 5.296875 -6.859375 C 4.054688 -8.941406 3.4375 -11.226562 3.4375 -13.71875 L 3.4375 -41.171875 C 3.4375 -43.660156 4.054688 -45.945312 5.296875 -48.03125 C 6.546875 -50.113281 8.210938 -51.78125 10.296875 -53.03125 C 12.378906 -54.28125 14.664062 -54.90625 17.15625 -54.90625 L 41.859375 -54.90625 Z M 41.859375 -37.75 "/></g></g></g><g fill="#ffbd59" fill-opacity="1"><g transform="translate(166.110794, 142.598415)"><g><path d="M 52.15625 -53.140625 L 47.34375 -53.140625 L 47.34375 -13.71875 C 47.34375 -11.226562 46.71875 -8.941406 45.46875 -6.859375 C 44.226562 -4.773438 42.566406 -3.109375 40.484375 -1.859375 C 38.398438 -0.617188 36.113281 0 33.625 0 L 19.90625 0 C 17.414062 0 15.125 -0.617188 13.03125 -1.859375 C 10.945312 -3.109375 9.28125 -4.773438 8.03125 -6.859375 C 6.789062 -8.941406 6.171875 -11.226562 6.171875 -13.71875 L 6.171875 -53.140625 L 1.375 -53.140625 L 1.375 -54.90625 L 24.703125 -54.90625 L 24.703125 -53.140625 L 19.90625 -53.140625 L 19.90625 -9.90625 L 37.359375 -9.90625 L 37.359375 -53.140625 L 32.5625 -53.140625 L 32.5625 -54.90625 L 52.15625 -54.90625 Z M 52.15625 -53.140625 "/></g></g></g><g fill="#ffbd59" fill-opacity="1"><g transform="translate(223.448288, 142.598415)"><g><path d="M 41.859375 -17.15625 L 43.53125 -17.15625 L 43.53125 0 L 1.375 0 L 1.375 -1.671875 L 6.171875 -1.671875 L 6.171875 -53.140625 L 1.375 -53.140625 L 1.375 -54.90625 L 24.703125 -54.90625 L 24.703125 -53.140625 L 19.90625 -53.140625 L 19.90625 -9.90625 L 41.859375 -11.671875 Z M 41.859375 -17.15625 "/></g></g></g><g fill="#ffbd59" fill-opacity="1"><g transform="translate(272.169972, 142.598415)"><g><path d="M 12.890625 -54.90625 L 37.4375 -54.90625 L 49.796875 -1.671875 L 54.515625 -1.671875 L 54.515625 0 L 30.875 0 L 30.875 -1.671875 L 35.6875 -1.671875 L 33.546875 -10.671875 L 18 -10.671875 L 15.859375 -1.671875 L 20.734375 -1.671875 L 20.734375 0 L 0.6875 0 L 0.6875 -1.671875 L 5.5625 -1.671875 L 17.6875 -53.140625 L 12.890625 -53.140625 Z M 26.15625 -42.859375 L 25.625 -42.859375 L 20.359375 -20.59375 L 31.265625 -20.59375 Z M 26.15625 -42.859375 "/></g></g></g><g fill="#ffbd59" fill-opacity="1"><g transform="translate(331.184888, 142.598415)"><g><path d="M 1.375 -1.671875 L 6.859375 -1.671875 L 6.859375 -53.140625 L 1.375 -53.140625 L 1.375 -54.90625 L 21.953125 -54.90625 L 35.453125 -18.828125 L 35.90625 -18.828125 L 49.40625 -54.90625 L 69.3125 -54.90625 L 69.3125 -53.140625 L 64.5 -53.140625 L 64.5 -1.671875 L 69.3125 -1.671875 L 69.3125 0 L 45.984375 0 L 45.984375 -1.671875 L 50.78125 -1.671875 L 50.78125 -27.453125 L 52.84375 -37.75 L 52.453125 -37.75 L 50.09375 -27.453125 L 38.734375 0 L 28.828125 0 L 17.46875 -27.453125 L 16.46875 -37.75 L 16.09375 -37.75 L 16.78125 -27.453125 L 16.78125 -1.671875 L 22.265625 -1.671875 L 22.265625 0 L 1.375 0 Z M 1.375 -1.671875 "/></g></g></g><g fill="#ffbd59" fill-opacity="1"><g transform="translate(405.677742, 142.598415)"><g><path d="M 12.890625 -54.90625 L 37.4375 -54.90625 L 49.796875 -1.671875 L 54.515625 -1.671875 L 54.515625 0 L 30.875 0 L 30.875 -1.671875 L 35.6875 -1.671875 L 33.546875 -10.671875 L 18 -10.671875 L 15.859375 -1.671875 L 20.734375 -1.671875 L 20.734375 0 L 0.6875 0 L 0.6875 -1.671875 L 5.5625 -1.671875 L 17.6875 -53.140625 L 12.890625 -53.140625 Z M 26.15625 -42.859375 L 25.625 -42.859375 L 20.359375 -20.59375 L 31.265625 -20.59375 Z M 26.15625 -42.859375 "/></g></g></g></g></g><path stroke-linecap="round" transform="matrix(0.75, -0.000000000000000651, 0.000000000000000651, 0.75, 541.802451, 516.65385)" fill="none" stroke-linejoin="miter" d="M 1.997774 1.997992 L 275.049871 1.997992 " stroke="#012759" stroke-width="4" stroke-opacity="1" stroke-miterlimit="4"/></svg>