<svg xmlns="http://www.w3.org/2000/svg" xmlns:xlink="http://www.w3.org/1999/xlink" width="1920" zoomAndPan="magnify" viewBox="0 0 1440 809.999993" height="1080" preserveAspectRatio="xMidYMid meet" version="1.0"><defs><g/><clipPath id="0d83accdb6"><path d="M 180 213 L 487.492188 213 L 487.492188 503.855469 L 180 503.855469 Z M 180 213 " clip-rule="nonzero"/></clipPath><clipPath id="79a8f29d59"><path d="M 172.492188 198.605469 L 287 198.605469 L 287 491 L 172.492188 491 Z M 172.492188 198.605469 " clip-rule="nonzero"/></clipPath><clipPath id="1f0e805322"><path d="M 358 179 L 477 179 L 477 288 L 358 288 Z M 358 179 " clip-rule="nonzero"/></clipPath><clipPath id="37ac5c4de2"><path d="M 403.085938 149.847656 L 506.765625 220.117188 L 459.214844 290.273438 L 355.535156 220 Z M 403.085938 149.847656 " clip-rule="nonzero"/></clipPath><clipPath id="81a2c88887"><path d="M 403.085938 149.847656 L 506.765625 220.117188 L 459.214844 290.273438 L 355.535156 220 Z M 403.085938 149.847656 " clip-rule="nonzero"/></clipPath></defs><path stroke-linecap="round" transform="matrix(0.000000001309, 0.75, -0.75, 0.000000001309, 170.841766, 269.218864)" fill="none" stroke-linejoin="miter" d="M 1.999848 2.002563 L 290.098821 2.002563 " stroke="#000000" stroke-width="4" stroke-opacity="1" stroke-miterlimit="4"/><g clip-path="url(#0d83accdb6)"><path fill="#000000" d="M 487.269531 485.621094 L 328.566406 485.621094 C 323.816406 496.402344 312.96875 503.84375 300.390625 503.71875 C 290.703125 503.589844 282.167969 498.902344 276.710938 491.78125 C 275.878906 490.691406 276.648438 489.148438 278.058594 489.148438 L 299.109375 489.214844 L 308.800781 473.492188 L 299.109375 457.703125 L 278.058594 457.640625 C 276.710938 457.640625 275.941406 456.097656 276.777344 455.007812 C 282.421875 447.691406 291.277344 443.007812 301.226562 443.136719 C 313.417969 443.328125 323.816406 450.707031 328.5 461.167969 L 462.753906 461.167969 L 462.753906 328.070312 L 333.890625 242.976562 L 204.898438 328.070312 L 204.898438 462.515625 L 180.386719 462.515625 L 180.386719 314.851562 L 333.890625 213.582031 L 487.269531 314.851562 Z M 487.269531 485.621094 " fill-opacity="1" fill-rule="nonzero"/></g><path fill="#000000" d="M 399.09375 433.960938 L 435.542969 397.507812 L 435.542969 433.960938 Z M 399.09375 433.960938 " fill-opacity="1" fill-rule="nonzero"/><path fill="#ffbd59" d="M 458.648438 345.460938 L 346.984375 457.125 L 364.246094 457.125 L 364.246094 448.335938 C 364.246094 447.5625 364.886719 446.921875 365.65625 446.921875 C 366.429688 446.921875 367.070312 447.5625 367.070312 448.335938 L 367.070312 457.125 L 376.695312 457.125 L 376.695312 448.335938 C 376.695312 447.5625 377.335938 446.921875 378.109375 446.921875 C 378.878906 446.921875 379.519531 447.5625 379.519531 448.335938 L 379.519531 457.125 L 389.144531 457.125 L 389.144531 448.335938 C 389.144531 447.5625 389.789062 446.921875 390.558594 446.921875 C 391.328125 446.921875 391.96875 447.5625 391.96875 448.335938 L 391.96875 457.125 L 401.59375 457.125 L 401.59375 448.335938 C 401.59375 447.5625 402.238281 446.921875 403.007812 446.921875 C 403.777344 446.921875 404.417969 447.5625 404.417969 448.335938 L 404.417969 457.125 L 414.046875 457.125 L 414.046875 448.335938 C 414.046875 447.5625 414.6875 446.921875 415.457031 446.921875 C 416.226562 446.921875 416.871094 447.5625 416.871094 448.335938 L 416.871094 457.125 L 426.496094 457.125 L 426.496094 448.335938 C 426.496094 447.5625 427.136719 446.921875 427.90625 446.921875 C 428.675781 446.921875 429.320312 447.5625 429.320312 448.335938 L 429.320312 457.125 L 438.945312 457.125 L 438.945312 448.335938 C 438.945312 447.5625 439.585938 446.921875 440.355469 446.921875 C 441.128906 446.921875 441.769531 447.5625 441.769531 448.335938 L 441.769531 457.125 L 459.03125 457.125 L 459.03125 439.863281 L 450.238281 439.863281 C 449.46875 439.863281 448.828125 439.222656 448.828125 438.453125 C 448.828125 437.679688 449.46875 437.039062 450.238281 437.039062 L 459.03125 437.039062 L 459.03125 427.414062 L 450.238281 427.414062 C 449.46875 427.414062 448.828125 426.773438 448.828125 426 C 448.828125 425.230469 449.46875 424.589844 450.238281 424.589844 L 459.03125 424.589844 L 459.03125 414.964844 L 450.238281 414.964844 C 449.46875 414.964844 448.828125 414.320312 448.828125 413.550781 C 448.828125 412.78125 449.46875 412.140625 450.238281 412.140625 L 459.03125 412.140625 L 459.03125 402.511719 L 450.238281 402.511719 C 449.46875 402.511719 448.828125 401.871094 448.828125 401.101562 C 448.828125 400.332031 449.46875 399.691406 450.238281 399.691406 L 459.03125 399.691406 L 459.03125 390.0625 L 450.238281 390.0625 C 449.46875 390.0625 448.828125 389.421875 448.828125 388.652344 C 448.828125 387.882812 449.46875 387.238281 450.238281 387.238281 L 459.03125 387.238281 L 459.03125 377.613281 L 450.238281 377.613281 C 449.46875 377.613281 448.828125 376.972656 448.828125 376.203125 C 448.828125 375.433594 449.46875 374.789062 450.238281 374.789062 L 459.03125 374.789062 L 459.03125 365.164062 L 450.238281 365.164062 C 449.46875 365.164062 448.828125 364.523438 448.828125 363.75 C 448.828125 362.980469 449.46875 362.339844 450.238281 362.339844 L 459.03125 362.339844 L 459.03125 345.460938 Z M 436.570312 395.003906 C 437.597656 395.453125 438.304688 396.417969 438.304688 397.570312 L 438.304688 434.023438 C 438.304688 435.5625 437.085938 436.78125 435.542969 436.78125 L 399.09375 436.78125 C 397.9375 436.78125 396.976562 436.078125 396.527344 435.050781 C 396.398438 434.730469 396.332031 434.34375 396.332031 433.960938 C 396.332031 433.253906 396.589844 432.546875 397.167969 431.96875 L 433.617188 395.519531 C 434.324219 394.8125 435.542969 394.554688 436.570312 395.003906 Z M 436.570312 395.003906 " fill-opacity="1" fill-rule="nonzero"/><g clip-path="url(#79a8f29d59)"><path fill="#ffbd59" d="M 249.246094 264.539062 L 224.730469 280.710938 L 224.730469 248.621094 L 249.246094 248.621094 Z M 281.589844 198.757812 C 277.160156 198.695312 272.796875 198.757812 268.367188 198.757812 C 267.214844 198.757812 266.378906 199.273438 265.867188 200.234375 C 264.582031 202.609375 261.179688 206.714844 257.523438 206.714844 C 252.773438 206.84375 249.628906 200.746094 245.203125 200.554688 C 236.089844 200.234375 226.976562 200.621094 217.863281 200.554688 C 199.765625 201.390625 185.070312 208.191406 173.132812 243.230469 C 172.941406 243.9375 172.492188 244.964844 173.324219 245.347656 C 176.664062 246.824219 191.617188 221.414062 212.664062 226.097656 C 224.664062 228.726562 224.859375 240.855469 224.730469 245.605469 L 249.308594 245.605469 C 249.308594 242.011719 249.308594 238.417969 249.308594 234.824219 C 249.371094 231.101562 250.527344 227.894531 253.417969 225.390625 C 255.40625 223.660156 258.484375 223.402344 260.859375 224.492188 C 263.171875 225.582031 264.453125 227.574219 265.609375 229.625 C 266.316406 230.910156 267.277344 231.488281 268.753906 231.421875 C 272.988281 231.359375 277.226562 231.421875 281.460938 231.421875 C 284.476562 231.421875 286.53125 229.371094 286.53125 226.355469 C 286.53125 218.84375 286.53125 211.335938 286.53125 203.894531 C 286.59375 200.941406 284.539062 198.824219 281.589844 198.757812 Z M 224.730469 321.332031 L 232.109375 321.332031 C 232.945312 321.332031 233.648438 322.039062 233.648438 322.871094 C 233.648438 323.707031 232.945312 324.414062 232.109375 324.414062 L 224.730469 324.414062 L 224.730469 331.023438 L 237.886719 331.023438 C 238.785156 331.023438 239.425781 331.730469 239.425781 332.5625 C 239.425781 333.398438 238.71875 334.101562 237.886719 334.101562 L 224.730469 334.101562 L 224.730469 340.714844 L 232.109375 340.714844 C 232.945312 340.714844 233.648438 341.417969 233.648438 342.253906 C 233.648438 343.085938 232.945312 343.792969 232.109375 343.792969 L 224.730469 343.792969 L 224.730469 350.402344 L 237.886719 350.402344 C 238.785156 350.402344 239.425781 351.109375 239.425781 351.945312 C 239.425781 352.777344 238.71875 353.484375 237.886719 353.484375 L 224.730469 353.484375 L 224.730469 360.09375 L 232.109375 360.09375 C 232.945312 360.09375 233.648438 360.800781 233.648438 361.632812 C 233.648438 362.46875 232.945312 363.175781 232.109375 363.175781 L 224.730469 363.175781 L 224.730469 369.785156 L 237.886719 369.785156 C 238.785156 369.785156 239.425781 370.492188 239.425781 371.324219 C 239.425781 372.160156 238.71875 372.863281 237.886719 372.863281 L 224.730469 372.863281 L 224.730469 379.476562 L 232.109375 379.476562 C 232.945312 379.476562 233.648438 380.179688 233.648438 381.015625 C 233.648438 381.847656 232.945312 382.554688 232.109375 382.554688 L 224.730469 382.554688 L 224.730469 389.359375 L 237.886719 389.359375 C 238.785156 389.359375 239.425781 390.0625 239.425781 390.898438 C 239.425781 391.730469 238.71875 392.4375 237.886719 392.4375 L 224.730469 392.4375 L 224.730469 399.046875 L 232.109375 399.046875 C 232.945312 399.046875 233.648438 399.753906 233.648438 400.589844 C 233.648438 401.421875 232.945312 402.128906 232.109375 402.128906 L 224.730469 402.128906 L 224.730469 408.800781 L 237.886719 408.800781 C 238.785156 408.800781 239.425781 409.507812 239.425781 410.34375 C 239.425781 411.175781 238.71875 411.882812 237.886719 411.882812 L 224.730469 411.882812 L 224.730469 418.492188 L 232.109375 418.492188 C 232.945312 418.492188 233.648438 419.199219 233.648438 420.035156 C 233.648438 420.867188 232.945312 421.574219 232.109375 421.574219 L 224.730469 421.574219 L 224.730469 428.246094 L 237.886719 428.246094 C 238.785156 428.246094 239.425781 428.953125 239.425781 429.789062 C 239.425781 430.621094 238.71875 431.328125 237.886719 431.328125 L 224.730469 431.328125 L 224.730469 438.003906 L 232.109375 438.003906 C 232.945312 438.003906 233.648438 438.707031 233.648438 439.542969 C 233.648438 440.375 232.945312 441.082031 232.109375 441.082031 L 224.730469 441.082031 L 224.730469 447.757812 L 237.886719 447.757812 C 238.785156 447.757812 239.425781 448.460938 239.425781 449.296875 C 239.425781 450.132812 238.71875 450.835938 237.886719 450.835938 L 224.730469 450.835938 L 224.730469 457.382812 L 232.109375 457.382812 C 232.945312 457.382812 233.648438 458.089844 233.648438 458.921875 C 233.648438 459.757812 232.945312 460.464844 232.109375 460.464844 L 224.730469 460.464844 L 224.730469 466.046875 L 180.386719 466.046875 L 180.386719 490.5625 L 181.605469 490.5625 L 181.605469 483.179688 C 181.605469 482.28125 182.308594 481.640625 183.144531 481.640625 C 183.980469 481.640625 184.683594 482.347656 184.683594 483.179688 L 184.683594 490.5625 L 191.359375 490.5625 L 191.359375 477.40625 C 191.359375 476.507812 192.066406 475.867188 192.898438 475.867188 C 193.734375 475.867188 194.4375 476.570312 194.4375 477.40625 L 194.4375 490.5625 L 201.050781 490.5625 L 201.050781 483.179688 C 201.050781 482.28125 201.753906 481.640625 202.589844 481.640625 C 203.425781 481.640625 204.128906 482.347656 204.128906 483.179688 L 204.128906 490.5625 L 210.804688 490.5625 L 210.804688 477.40625 C 210.804688 476.507812 211.511719 475.867188 212.34375 475.867188 C 213.179688 475.867188 213.882812 476.570312 213.882812 477.40625 L 213.882812 490.5625 L 220.558594 490.5625 L 220.558594 483.179688 C 220.558594 482.28125 221.265625 481.640625 222.097656 481.640625 C 222.933594 481.640625 223.640625 482.347656 223.640625 483.179688 L 223.640625 490.5625 L 230.3125 490.5625 L 230.3125 477.40625 C 230.3125 476.507812 231.019531 475.867188 231.851562 475.867188 C 232.6875 475.867188 233.394531 476.570312 233.394531 477.40625 L 233.394531 490.5625 L 240.066406 490.5625 L 240.066406 483.179688 C 240.066406 482.28125 240.773438 481.640625 241.609375 481.640625 C 242.441406 481.640625 243.148438 482.347656 243.148438 483.179688 L 243.148438 490.5625 L 249.4375 490.5625 L 249.4375 304.839844 L 224.921875 321.011719 L 224.921875 321.332031 Z M 224.730469 321.332031 " fill-opacity="1" fill-rule="nonzero"/></g><path fill="#000000" d="M 298.851562 359.644531 L 331.515625 359.644531 L 331.515625 392.308594 L 303.535156 392.308594 C 300.96875 392.308594 298.851562 390.257812 298.851562 387.625 Z M 336.136719 359.644531 L 336.136719 392.308594 L 364.117188 392.308594 C 366.683594 392.308594 368.800781 390.257812 368.800781 387.625 L 368.800781 359.644531 Z M 298.851562 326.980469 L 298.851562 354.960938 L 331.515625 354.960938 L 331.515625 322.296875 L 303.535156 322.296875 C 300.90625 322.359375 298.851562 324.414062 298.851562 326.980469 Z M 364.117188 322.359375 L 336.136719 322.359375 L 336.136719 355.023438 L 368.800781 355.023438 L 368.800781 327.042969 C 368.800781 324.414062 366.75 322.359375 364.117188 322.359375 Z M 364.117188 322.359375 " fill-opacity="1" fill-rule="nonzero"/><path stroke-linecap="round" transform="matrix(0.62239, -0.418486, 0.418486, 0.62239, 145.542114, 326.302357)" fill="none" stroke-linejoin="miter" d="M 2.00068 2.001698 L 117.542478 1.997136 " stroke="#000000" stroke-width="4" stroke-opacity="1" stroke-miterlimit="4"/><g clip-path="url(#1f0e805322)"><g clip-path="url(#37ac5c4de2)"><g clip-path="url(#81a2c88887)"><path fill="#ffbd59" d="M 466.824219 264.460938 C 474.894531 252.558594 477.609375 238.617188 475.542969 225.453125 L 450.269531 246.414062 C 449.8125 246.792969 449.171875 246.804688 448.703125 246.488281 C 448.601562 246.421875 448.511719 246.339844 448.429688 246.242188 C 447.96875 245.683594 448.046875 244.863281 448.597656 244.398438 L 474.996094 222.507812 C 473.058594 213.433594 468.832031 204.84375 462.476562 197.691406 L 441.84375 222.4375 C 439.828125 225.246094 435.585938 225.734375 432.300781 223.511719 L 428.175781 220.714844 C 424.894531 218.488281 423.777344 214.363281 425.640625 211.453125 L 441.082031 182.941406 C 432.152344 179.535156 422.648438 178.613281 413.511719 180.007812 L 402.734375 213.3125 C 402.511719 214 401.773438 214.378906 401.085938 214.15625 C 400.96875 214.113281 400.859375 214.058594 400.757812 213.992188 C 400.289062 213.671875 400.0625 213.074219 400.246094 212.507812 L 410.589844 180.539062 C 397.214844 183.324219 384.863281 191.101562 376.59375 203.300781 L 372.734375 208.996094 L 462.96875 270.15625 L 466.828125 264.460938 Z M 429.644531 218.546875 L 433.769531 221.34375 C 435.910156 222.796875 438.59375 222.574219 439.765625 220.847656 L 461.816406 194.398438 C 462.988281 192.671875 462.199219 190.097656 460.058594 188.648438 L 450.277344 182.015625 C 448.136719 180.566406 445.453125 180.785156 444.285156 182.511719 L 427.886719 212.796875 C 426.714844 214.523438 427.503906 217.097656 429.644531 218.546875 Z M 461.800781 272.527344 L 371.265625 211.160156 C 367.578125 208.664062 362.566406 209.625 360.070312 213.308594 C 357.574219 216.996094 358.535156 222.007812 362.21875 224.503906 L 452.757812 285.871094 C 456.445312 288.367188 461.457031 287.40625 463.953125 283.71875 C 466.449219 280.035156 465.488281 275.023438 461.800781 272.527344 Z M 461.800781 272.527344 " fill-opacity="1" fill-rule="nonzero"/></g></g></g><path stroke-linecap="round" transform="matrix(0, 0.75, -0.75, 0, 500.598485, 290.640884)" fill="none" stroke-linejoin="miter" d="M 1.999655 2.001105 L 290.098628 2.001105 " stroke="#000000" stroke-width="4" stroke-opacity="1" stroke-miterlimit="4"/><g fill="#000000" fill-opacity="1"><g transform="translate(505.485679, 432.374998)"><g><path d="M 6.015625 -82.703125 L 36.1875 -82.703125 C 44.613281 -82.703125 51.429688 -80.53125 56.640625 -76.1875 C 61.847656 -71.84375 64.453125 -65.523438 64.453125 -57.234375 C 64.453125 -48.953125 61.8125 -42.453125 56.53125 -37.734375 C 51.257812 -33.023438 44.476562 -30.671875 36.1875 -30.671875 L 24.859375 -30.671875 L 24.859375 0 L 6.015625 0 Z M 24.859375 -45.71875 L 30.171875 -45.71875 C 34.378906 -45.71875 37.835938 -46.566406 40.546875 -48.265625 C 43.253906 -49.972656 44.609375 -52.765625 44.609375 -56.640625 C 44.609375 -60.585938 43.253906 -63.410156 40.546875 -65.109375 C 37.835938 -66.816406 34.378906 -67.671875 30.171875 -67.671875 L 24.859375 -67.671875 Z M 24.859375 -45.71875 "/></g></g></g><g fill="#000000" fill-opacity="1"><g transform="translate(577.259448, 432.374998)"><g><path d="M 6.015625 -82.703125 L 35.59375 -82.703125 C 43.539062 -82.703125 50.019531 -80.578125 55.03125 -76.328125 C 60.050781 -72.085938 62.5625 -66.023438 62.5625 -58.140625 C 62.5625 -52.054688 61.039062 -46.957031 58 -42.84375 C 54.957031 -38.738281 50.828125 -35.851562 45.609375 -34.1875 L 74.078125 0 L 50.125 0 L 24.859375 -32.6875 L 24.859375 0 L 6.015625 0 Z M 24.859375 -46.015625 L 27.0625 -46.015625 C 28.800781 -46.015625 30.269531 -46.046875 31.46875 -46.109375 C 32.675781 -46.179688 34.046875 -46.414062 35.578125 -46.8125 C 37.117188 -47.21875 38.359375 -47.785156 39.296875 -48.515625 C 40.234375 -49.253906 41.035156 -50.320312 41.703125 -51.71875 C 42.367188 -53.125 42.703125 -54.828125 42.703125 -56.828125 C 42.703125 -58.835938 42.367188 -60.546875 41.703125 -61.953125 C 41.035156 -63.359375 40.234375 -64.425781 39.296875 -65.15625 C 38.359375 -65.894531 37.117188 -66.460938 35.578125 -66.859375 C 34.046875 -67.265625 32.675781 -67.5 31.46875 -67.5625 C 30.269531 -67.632812 28.800781 -67.671875 27.0625 -67.671875 L 24.859375 -67.671875 Z M 24.859375 -46.015625 "/></g></g></g><g fill="#000000" fill-opacity="1"><g transform="translate(654.04533, 432.374998)"><g><path d="M 2.3125 -41.40625 C 2.3125 -53.363281 6.382812 -63.484375 14.53125 -71.765625 C 22.6875 -80.054688 32.515625 -84.203125 44.015625 -84.203125 C 55.578125 -84.203125 65.398438 -80.078125 73.484375 -71.828125 C 81.566406 -63.578125 85.609375 -53.4375 85.609375 -41.40625 C 85.609375 -29.3125 81.628906 -19.132812 73.671875 -10.875 C 65.722656 -2.625 55.835938 1.5 44.015625 1.5 C 31.910156 1.5 21.929688 -2.59375 14.078125 -10.78125 C 6.234375 -18.96875 2.3125 -29.175781 2.3125 -41.40625 Z M 22.65625 -41.40625 C 22.65625 -37.0625 23.320312 -33.097656 24.65625 -29.515625 C 26 -25.941406 28.335938 -22.914062 31.671875 -20.4375 C 35.015625 -17.96875 39.128906 -16.734375 44.015625 -16.734375 C 51.023438 -16.734375 56.316406 -19.140625 59.890625 -23.953125 C 63.472656 -28.765625 65.265625 -34.582031 65.265625 -41.40625 C 65.265625 -48.15625 63.441406 -53.953125 59.796875 -58.796875 C 56.148438 -63.640625 50.890625 -66.0625 44.015625 -66.0625 C 37.191406 -66.0625 31.925781 -63.640625 28.21875 -58.796875 C 24.507812 -53.953125 22.65625 -48.15625 22.65625 -41.40625 Z M 22.65625 -41.40625 "/></g></g></g><g fill="#000000" fill-opacity="1"><g transform="translate(746.970194, 432.374998)"><g/></g></g><g fill="#000000" fill-opacity="1"><g transform="translate(779.348779, 432.374998)"><g><path d="M 69.578125 -82.703125 L 69.578125 -29.375 C 69.578125 -19.21875 66.832031 -11.53125 61.34375 -6.3125 C 55.863281 -1.101562 47.84375 1.5 37.28125 1.5 C 26.726562 1.5 18.710938 -1.101562 13.234375 -6.3125 C 7.753906 -11.53125 5.015625 -19.21875 5.015625 -29.375 L 5.015625 -82.703125 L 23.859375 -82.703125 L 23.859375 -34.890625 C 23.859375 -28.203125 24.910156 -23.554688 27.015625 -20.953125 C 29.117188 -18.347656 32.539062 -17.046875 37.28125 -17.046875 C 42.03125 -17.046875 45.457031 -18.347656 47.5625 -20.953125 C 49.664062 -23.554688 50.71875 -28.203125 50.71875 -34.890625 L 50.71875 -82.703125 Z M 69.578125 -82.703125 "/></g></g></g><g fill="#000000" fill-opacity="1"><g transform="translate(849.919385, 432.374998)"><g><path d="M -3 -82.703125 L 19.65625 -82.703125 L 36.890625 -56.234375 L 54.140625 -82.703125 L 76.796875 -82.703125 L 46.3125 -37.09375 L 46.3125 0 L 27.46875 0 L 27.46875 -37.09375 Z M -3 -82.703125 "/></g></g></g><g fill="#000000" fill-opacity="1"><g transform="translate(928.7101, 432.374998)"><g><path d="M 80.796875 -46.3125 L 80.796875 -28.375 C 78.660156 -18.550781 73.984375 -11.113281 66.765625 -6.0625 C 59.546875 -1.019531 51.492188 1.5 42.609375 1.5 C 31.441406 1.5 21.929688 -2.675781 14.078125 -11.03125 C 6.234375 -19.382812 2.3125 -29.472656 2.3125 -41.296875 C 2.3125 -53.328125 6.148438 -63.484375 13.828125 -71.765625 C 21.515625 -80.054688 31.109375 -84.203125 42.609375 -84.203125 C 56.035156 -84.203125 66.660156 -79.492188 74.484375 -70.078125 L 62.15625 -56.546875 C 57.738281 -63.628906 51.585938 -67.171875 43.703125 -67.171875 C 37.890625 -67.171875 32.925781 -64.644531 28.8125 -59.59375 C 24.707031 -54.550781 22.65625 -48.453125 22.65625 -41.296875 C 22.65625 -34.285156 24.707031 -28.289062 28.8125 -23.3125 C 32.925781 -18.332031 37.890625 -15.84375 43.703125 -15.84375 C 48.515625 -15.84375 52.707031 -17.296875 56.28125 -20.203125 C 59.863281 -23.109375 61.65625 -26.96875 61.65625 -31.78125 L 42.609375 -31.78125 L 42.609375 -46.3125 Z M 80.796875 -46.3125 "/></g></g></g><g fill="#000000" fill-opacity="1"><g transform="translate(1016.823331, 432.374998)"><g><path d="M 69.578125 -82.703125 L 69.578125 -29.375 C 69.578125 -19.21875 66.832031 -11.53125 61.34375 -6.3125 C 55.863281 -1.101562 47.84375 1.5 37.28125 1.5 C 26.726562 1.5 18.710938 -1.101562 13.234375 -6.3125 C 7.753906 -11.53125 5.015625 -19.21875 5.015625 -29.375 L 5.015625 -82.703125 L 23.859375 -82.703125 L 23.859375 -34.890625 C 23.859375 -28.203125 24.910156 -23.554688 27.015625 -20.953125 C 29.117188 -18.347656 32.539062 -17.046875 37.28125 -17.046875 C 42.03125 -17.046875 45.457031 -18.347656 47.5625 -20.953125 C 49.664062 -23.554688 50.71875 -28.203125 50.71875 -34.890625 L 50.71875 -82.703125 Z M 69.578125 -82.703125 "/></g></g></g><g fill="#000000" fill-opacity="1"><g transform="translate(1096.416024, 432.374998)"><g><path d="M 24.859375 -82.703125 L 24.859375 -16.546875 L 53.328125 -16.546875 L 53.328125 0 L 6.015625 0 L 6.015625 -82.703125 Z M 24.859375 -82.703125 "/></g></g></g><g fill="#000000" fill-opacity="1"><g transform="translate(1159.569005, 432.374998)"><g><path d="M 48.015625 -82.703125 L 81.40625 0 L 61.15625 0 L 55.03125 -16.546875 L 23.5625 -16.546875 L 17.4375 0 L -2.8125 0 L 30.578125 -82.703125 Z M 48.625 -33.078125 L 39.390625 -57.140625 L 39.203125 -57.140625 L 29.96875 -33.078125 Z M 48.625 -33.078125 "/></g></g></g><g fill="#000000" fill-opacity="1"><g transform="translate(1243.171342, 432.374998)"><g><path d="M 74.390625 0 L 70.46875 -49.015625 L 69.96875 -49.015625 L 53.03125 -0.5 L 41.796875 -0.5 L 24.859375 -49.015625 L 24.359375 -49.015625 L 20.453125 0 L 1.609375 0 L 9.015625 -82.703125 L 29.078125 -82.703125 L 47.421875 -34.984375 L 65.765625 -82.703125 L 85.8125 -82.703125 L 93.234375 0 Z M 74.390625 0 "/></g></g></g><g fill="#000000" fill-opacity="1"><g transform="translate(1343.012889, 432.374998)"><g><path d="M 48.015625 -82.703125 L 81.40625 0 L 61.15625 0 L 55.03125 -16.546875 L 23.5625 -16.546875 L 17.4375 0 L -2.8125 0 L 30.578125 -82.703125 Z M 48.625 -33.078125 L 39.390625 -57.140625 L 39.203125 -57.140625 L 29.96875 -33.078125 Z M 48.625 -33.078125 "/></g></g></g><path stroke-linecap="round" transform="matrix(0.75, -0.000000000000000651, 0.000000000000000651, 0.75, 329.882656, 493.892035)" fill="none" stroke-linejoin="miter" d="M 2.000209 1.99812 L 275.052306 1.99812 " stroke="#000000" stroke-width="4" stroke-opacity="1" stroke-miterlimit="4"/></svg>